<svg xmlns="http://www.w3.org/2000/svg" height="512pt" version="1.1" viewBox="-138 0 512 512.00027" width="512pt">
<g id="surface1">
<path d="M 61.742188 197.910156 L 19.988281 131.71875 C 14.207031 122.554688 16.949219 110.4375 26.117188 104.65625 C 35.28125 98.875 47.398438 101.617188 53.175781 110.78125 L 80.03125 153.355469 L 106.246094 119.71875 C 109.964844 114.949219 115.675781 112.160156 121.722656 112.160156 L 160.757812 112.160156 C 171.59375 112.160156 180.378906 120.941406 180.378906 131.78125 C 180.378906 142.617188 171.59375 151.402344 160.757812 151.402344 L 131.304688 151.402344 L 93.808594 199.507812 C 85.453125 210.230469 68.988281 209.398438 61.742188 197.910156 Z M 61.742188 197.910156 " style=" stroke:none;fill-rule:nonzero;fill:rgb(96.078431%,66.27451%,56.470588%);fill-opacity:1;" />
<path d="M 0 92.121094 C 0 94.914062 2.40625 97.105469 5.191406 96.839844 L 34.878906 94 L 34.878906 61.449219 L 5.191406 58.609375 C 2.414062 58.34375 0 60.527344 0 63.324219 Z M 0 92.121094 " style=" stroke:none;fill-rule:nonzero;fill:rgb(27.45098%,45.098039%,54.901961%);fill-opacity:1;" />
<path d="M 22.671875 105.871094 C 22.671875 109.589844 25.683594 112.601562 29.398438 112.601562 L 130.582031 112.601562 C 134.296875 112.601562 137.308594 109.589844 137.308594 105.871094 L 137.308594 49.574219 C 137.308594 45.859375 134.296875 42.847656 130.582031 42.847656 L 29.398438 42.847656 C 25.683594 42.847656 22.671875 45.859375 22.671875 49.574219 Z M 22.671875 105.871094 " style=" stroke:none;fill-rule:nonzero;fill:rgb(23.529412%,35.294118%,45.098039%);fill-opacity:1;" />
<path d="M 72.042969 28.925781 C 72.042969 12.976562 85.019531 0 100.96875 0 C 116.917969 0 129.890625 12.976562 129.890625 28.925781 C 129.890625 44.875 116.914062 57.851562 100.96875 57.851562 C 85.019531 57.851562 72.042969 44.875 72.042969 28.925781 Z M 90.148438 28.925781 C 90.148438 34.890625 95.003906 39.742188 100.96875 39.742188 C 106.933594 39.742188 111.785156 34.890625 111.785156 28.925781 C 111.785156 22.960938 106.933594 18.105469 100.96875 18.105469 C 95 18.105469 90.148438 22.960938 90.148438 28.925781 Z M 90.148438 28.925781 " style=" stroke:none;fill-rule:nonzero;fill:rgb(52.941176%,68.627451%,72.54902%);fill-opacity:1;" />
<path d="M 32.296875 28.925781 C 32.296875 12.976562 45.273438 0 61.222656 0 C 77.171875 0 90.148438 12.976562 90.148438 28.925781 C 90.148438 44.875 77.171875 57.851562 61.222656 57.851562 C 45.273438 57.851562 32.296875 44.875 32.296875 28.925781 Z M 50.40625 28.925781 C 50.40625 34.890625 55.257812 39.742188 61.222656 39.742188 C 67.1875 39.742188 72.042969 34.890625 72.042969 28.925781 C 72.042969 22.960938 67.191406 18.105469 61.222656 18.105469 C 55.257812 18.109375 50.40625 22.960938 50.40625 28.925781 Z M 50.40625 28.925781 " style=" stroke:none;fill-rule:nonzero;fill:rgb(52.941176%,68.627451%,72.54902%);fill-opacity:1;" />
<path d="M 160.757812 112.160156 L 121.722656 112.160156 C 115.675781 112.160156 109.964844 114.949219 106.25 119.71875 L 80.03125 153.355469 L 102.953125 187.773438 L 131.304688 151.398438 L 160.757812 151.398438 C 171.59375 151.398438 180.378906 142.617188 180.378906 131.777344 C 180.378906 120.941406 171.59375 112.160156 160.757812 112.160156 Z M 160.757812 112.160156 " style=" stroke:none;fill-rule:nonzero;fill:rgb(39.215686%,68.627451%,100%);fill-opacity:1;" />
<path d="M 102.855469 511.699219 C 89.976562 509.902344 80.996094 498.003906 82.792969 485.128906 L 109.824219 290.78125 C 111.621094 277.902344 123.515625 268.921875 136.398438 270.714844 C 149.277344 272.511719 158.261719 284.410156 156.464844 297.289062 L 129.429688 491.632812 C 127.636719 504.476562 115.769531 513.5 102.855469 511.699219 Z M 102.855469 511.699219 " style=" stroke:none;fill-rule:nonzero;fill:rgb(37.254902%,43.137255%,60.784314%);fill-opacity:1;" />
<path d="M 188.757812 491.324219 L 164.65625 296.933594 C 163.070312 284.027344 172.246094 272.28125 185.15625 270.695312 C 198.058594 269.113281 209.808594 278.289062 211.394531 291.195312 L 235.496094 485.582031 C 237.082031 498.488281 227.90625 510.234375 214.996094 511.820312 C 202.089844 513.410156 190.34375 504.226562 188.757812 491.324219 Z M 188.757812 491.324219 " style=" stroke:none;fill-rule:nonzero;fill:rgb(25.490196%,29.411765%,50.980392%);fill-opacity:1;" />
<path d="M 108.601562 131.78125 L 212.527344 131.78125 L 212.527344 300.1875 L 108.601562 300.1875 Z M 108.601562 131.78125 " style=" stroke:none;fill-rule:nonzero;fill:rgb(39.215686%,68.627451%,100%);fill-opacity:1;" />
<path d="M 122.300781 203.609375 L 47.039062 142.675781 C 38.621094 135.855469 37.320312 123.503906 44.140625 115.078125 C 50.957031 106.660156 63.3125 105.359375 71.734375 112.175781 L 133.464844 162.160156 L 146.160156 149.828125 C 139.15625 146.832031 134.25 139.878906 134.25 131.78125 C 134.25 120.945312 143.035156 112.160156 153.871094 112.160156 L 192.90625 112.160156 C 200.894531 112.160156 208.085938 117.003906 211.089844 124.40625 C 214.09375 131.808594 212.308594 140.289062 206.578125 145.855469 L 148.316406 202.4375 C 141.214844 209.332031 130.042969 209.878906 122.300781 203.609375 Z M 122.300781 203.609375 " style=" stroke:none;fill-rule:nonzero;fill:rgb(100%,71.372549%,61.960784%);fill-opacity:1;" />
<path d="M 211.089844 124.40625 C 208.085938 117.003906 200.894531 112.160156 192.90625 112.160156 L 153.871094 112.160156 C 143.035156 112.160156 134.25 120.945312 134.25 131.78125 C 134.25 139.878906 139.15625 146.832031 146.160156 149.828125 L 136.84375 158.875 L 164.910156 186.320312 L 206.578125 145.855469 C 212.308594 140.289062 214.09375 131.804688 211.089844 124.40625 Z M 211.089844 124.40625 " style=" stroke:none;fill-rule:nonzero;fill:rgb(39.215686%,68.627451%,100%);fill-opacity:1;" />
<path d="M 199.710938 62.773438 C 199.710938 85.230469 181.503906 103.4375 159.046875 103.4375 C 136.589844 103.4375 118.382812 85.230469 118.382812 62.773438 C 118.382812 40.316406 136.589844 22.109375 159.046875 22.109375 C 181.503906 22.109375 199.710938 40.316406 199.710938 62.773438 Z M 199.710938 62.773438 " style=" stroke:none;fill-rule:nonzero;fill:rgb(100%,71.372549%,61.960784%);fill-opacity:1;" />
<path d="M 139.835938 112.160156 C 139.90625 122.714844 148.476562 131.25 159.046875 131.25 C 169.617188 131.25 178.1875 122.714844 178.253906 112.160156 Z M 139.835938 112.160156 " style=" stroke:none;fill-rule:nonzero;fill:rgb(100%,71.372549%,61.960784%);fill-opacity:1;" />
</g>
</svg>