<?xml version="1.0"?>
<svg xmlns="http://www.w3.org/2000/svg" height="512px" viewBox="0 0 512 512" width="512px" class=""><g transform="matrix(0.770043 0 0 0.770043 58.8689 58.8689)"><path d="m189.855469 74.421875h-35.921875c-4.078125 0-7.382813-3.304687-7.382813-7.382813v-10.070312c0-13.996094 11.347657-25.34375 25.34375-25.34375 14 0 25.347657 11.347656 25.347657 25.34375v10.070312c0 4.078126-3.308594 7.382813-7.386719 7.382813zm0 0" fill="#4e5660" data-original="#4E5660"/><g fill="#eea849"><path d="m171.894531 132.15625c-4.140625 0-7.5-3.359375-7.5-7.5v-22.570312c0-4.144532 3.359375-7.5 7.5-7.5 4.144531 0 7.5 3.355468 7.5 7.5v22.570312c0 4.140625-3.355469 7.5-7.5 7.5zm0 0" data-original="#000000"/><path d="m129.742188 120.871094c-1.921876 0-3.839844-.734375-5.304688-2.195313-2.929688-2.933593-2.929688-7.679687 0-10.609375l13.121094-13.121094c2.929687-2.929687 7.679687-2.929687 10.609375 0 2.929687 2.929688 2.929687 7.675782 0 10.605469l-13.125 13.125c-1.464844 1.460938-3.382813 2.195313-5.300781 2.195313zm0 0" data-original="#000000"/><path d="m214.050781 120.871094c-1.921875 0-3.839843-.734375-5.304687-2.195313l-13.125-13.125c-2.929688-2.929687-2.929688-7.679687 0-10.605469 2.929687-2.929687 7.679687-2.929687 10.609375 0l13.121093 13.121094c2.929688 2.929688 2.929688 7.679688 0 10.609375-1.464843 1.460938-3.382812 2.195313-5.300781 2.195313zm0 0" data-original="#000000"/></g><path d="m322.144531 74.421875h35.921875c4.078125 0 7.382813-3.304687 7.382813-7.382813v-10.070312c0-13.996094-11.347657-25.34375-25.34375-25.34375-14 0-25.347657 11.347656-25.347657 25.34375v10.070312c0 4.078126 3.308594 7.382813 7.386719 7.382813zm0 0" fill="#4e5660" data-original="#4E5660"/><path d="m340.105469 132.15625c-4.144531 0-7.5-3.359375-7.5-7.5v-22.570312c0-4.144532 3.355469-7.5 7.5-7.5 4.140625 0 7.5 3.355468 7.5 7.5v22.570312c0 4.140625-3.359375 7.5-7.5 7.5zm0 0" fill="#eea849" data-original="#EEA849" class=""/><path d="m382.257812 120.871094c-1.917968 0-3.835937-.734375-5.304687-2.195313l-13.121094-13.125c-2.929687-2.929687-2.929687-7.679687 0-10.605469 2.929688-2.929687 7.679688-2.929687 10.609375 0l13.121094 13.121094c2.929688 2.929688 2.929688 7.679688 0 10.609375-1.464844 1.460938-3.382812 2.195313-5.304688 2.195313zm0 0" fill="#eea849" data-original="#EEA849" class=""/><path d="m297.949219 120.871094c-1.917969 0-3.835938-.734375-5.300781-2.195313-2.929688-2.933593-2.929688-7.679687 0-10.609375l13.121093-13.121094c2.929688-2.929687 7.679688-2.929687 10.609375 0 2.925782 2.929688 2.925782 7.675782 0 10.605469l-13.125 13.125c-1.464844 1.460938-3.382812 2.195313-5.304687 2.195313zm0 0" fill="#eea849" data-original="#EEA849" class=""/><path d="m52.265625 31.625h31.625v155.957031h-31.625zm0 0" fill="#4e5660" data-original="#4E5660"/><path d="m428.113281 31.625h31.625v155.957031h-31.625zm0 0" fill="#4e5660" data-original="#4E5660"/><path d="m497.980469 20.042969v-8.460938c0-6.398437-5.1875-11.582031-11.582031-11.582031h-460.796876c-6.394531 0-11.582031 5.183594-11.582031 11.582031v8.460938c0 6.394531 5.1875 11.582031 11.582031 11.582031h460.796876c6.394531 0 11.582031-5.183594 11.582031-11.582031zm0 0" fill="#8eafe2" data-original="#8EAFE2"/><path d="m242.042969 0h-216.441407c-6.394531 0-11.582031 5.183594-11.582031 11.582031v8.460938c0 6.394531 5.1875 11.582031 11.582031 11.582031h219.933594c-7.335937-7.441406-9.472656-21.3125-3.492187-31.625zm0 0" fill="#6a96d7" data-original="#6A96D7"/><path d="m334.644531 287.054688c-7.777343-.476563-15.25.535156-22.179687 2.765624-3.574219 1.148438-7.535156.046876-9.757813-2.976562-10.546875-14.355469-27.53125-23.675781-46.707031-23.675781-15.980469 0-30.445312 6.476562-40.925781 16.945312-2.621094 2.613281-6.515625 3.367188-9.910157 1.886719-8.140624-3.550781-17.214843-5.363281-26.757812-4.941406-31.140625 1.375-56.402344 26.835937-57.53125 57.988281-1.242188 34.316406 26.207031 62.527344 60.246094 62.527344 20.015625 0 37.742187-9.761719 48.707031-24.773438 7.863281 3.988281 16.75 6.25 26.171875 6.25 7.542969 0 14.742188-1.457031 21.355469-4.082031 10.039062 19.332031 30.230469 32.546875 53.519531 32.546875 34.015625 0 61.449219-28.167969 60.25-62.445313-1.074219-30.792968-25.726562-56.128906-56.480469-58.015624zm0 0" fill="#a3defe" data-original="#A3DEFE"/><path d="m229.828125 372.796875c7.863281 3.988281 16.75 6.253906 26.171875 6.253906 3.429688 0 6.785156-.316406 10.050781-.894531-33-38.683594-34.382812-91.878906-23.613281-113.375-10.53125 2.53125-19.945312 7.921875-27.363281 15.328125-2.621094 2.617187-6.515625 3.367187-9.910157 1.886719-8.140624-3.550782-17.214843-5.359375-26.757812-4.9375-31.140625 1.371094-56.402344 26.835937-57.53125 57.988281-1.242188 34.316406 26.207031 62.523437 60.246094 62.523437 20.015625 0 37.742187-9.757812 48.707031-24.773437zm0 0" fill="#7acefa" data-original="#7ACEFA"/><path d="m497.367188 404.363281h-482.734376c-8.082031 0-14.632812-6.550781-14.632812-14.632812v-27.871094c0-8.082031 6.550781-14.632813 14.632812-14.632813h482.734376c8.082031 0 14.632812 6.550782 14.632812 14.632813v27.871094c0 8.082031-6.550781 14.632812-14.632812 14.632812zm0 0" fill="#e8899e" data-original="#E8899E" class=""/><path d="m14.632812 347.226562c-8.082031 0-14.632812 6.550782-14.632812 14.632813v27.871094c0 8.082031 6.550781 14.632812 14.632812 14.632812h291.527344c-13.898437-10.640625-27.070312-36.308593-17.429687-57.136719zm0 0" fill="#de5c6e" data-original="#DE5C6E"/><path d="m480.996094 404.363281h-449.992188v79.214844c0 15.695313 12.726563 28.421875 28.421875 28.421875h393.148438c15.695312 0 28.417969-12.722656 28.417969-28.421875v-79.214844zm0 0" fill="#e1b89a" data-original="#E1B89A" class=""/><path d="m251.328125 404.363281h-220.324219v79.214844c0 15.695313 12.726563 28.421875 28.421875 28.421875h222.082031c-22.464843-25.179688-34.046874-70.789062-30.179687-107.636719zm0 0" fill="#d2996f" data-original="#D2996F" class="active-path" style="fill:#D2996F" data-old_color="#d2996f"/><path d="m126.246094 187.582031h-80.328125c-8.234375 0-14.914063 6.675781-14.914063 14.914063v144.730468h110.15625v-144.730468c0-8.238282-6.675781-14.914063-14.914062-14.914063zm0 0" fill="#8eafe2" data-original="#8EAFE2"/><path d="m111.082031 301.996094c0 13.808594-11.191406 25-25 25-13.804687 0-24.996093-11.191406-24.996093-25 0-13.804688 11.191406-25 24.996093-25 13.808594 0 25 11.195312 25 25zm0 0" fill="#4e5660" data-original="#4E5660"/><path d="m106.28125 235.574219c0 11.152343-9.042969 20.195312-20.199219 20.195312-11.152343 0-20.195312-9.042969-20.195312-20.195312 0-11.15625 9.042969-20.199219 20.195312-20.199219 11.15625 0 20.199219 9.042969 20.199219 20.199219zm0 0" fill="#4e5660" data-original="#4E5660"/><path d="m385.753906 187.582031h80.328125c8.234375 0 14.914063 6.675781 14.914063 14.914063v144.730468h-110.15625v-144.730468c0-8.238282 6.675781-14.914063 14.914062-14.914063zm0 0" fill="#8eafe2" data-original="#8EAFE2"/><path d="m450.914062 301.996094c0 13.808594-11.191406 25-24.996093 25-13.808594 0-25-11.191406-25-25 0-13.804688 11.191406-25 25-25 13.804687 0 24.996093 11.195312 24.996093 25zm0 0" fill="#4e5660" data-original="#4E5660"/><path d="m446.113281 235.574219c0 11.152343-9.042969 20.195312-20.195312 20.195312-11.15625 0-20.199219-9.042969-20.199219-20.195312 0-11.15625 9.042969-20.199219 20.199219-20.199219 11.152343 0 20.195312 9.042969 20.195312 20.199219zm0 0" fill="#4e5660" data-original="#4E5660"/><path d="m340.484375 240.703125c0 11.15625-9.042969 20.199219-20.199219 20.199219-11.152344 0-20.195312-9.042969-20.195312-20.199219 0-11.152344 9.042968-20.195313 20.195312-20.195313 11.15625 0 20.199219 9.042969 20.199219 20.195313zm0 0" fill="#a3defe" data-original="#A3DEFE"/><path d="m179.332031 347.226562c0-21.082031-17.089843-38.171874-38.171875-38.171874-21.082031 0-38.171875 17.089843-38.171875 38.171874zm0 0" fill="#a3defe" data-original="#A3DEFE"/><path d="m407.734375 347.226562c0-20.375-16.515625-36.894531-36.894531-36.894531-20.375 0-36.894532 16.519531-36.894532 36.894531zm0 0" fill="#7acefa" data-original="#7ACEFA"/></g> </svg>
