<?xml version="1.0"?>
<svg xmlns="http://www.w3.org/2000/svg" id="Capa_1" enable-background="new 0 0 512 512" height="512px" viewBox="0 0 512 512" width="512px"><g transform="matrix(0.842859 0 0 0.842859 40.2281 40.2281)"><path d="m504.93 334.27-241-150c-2.43-1.51-5.18-2.27-7.93-2.27s-5.5.76-7.93 2.27l-241 150c-9.45 5.88-9.39 19.62 0 25.46l241 150c2.43 1.51 5.17 2.27 7.93 2.27 2.75 0 5.5-.75 7.93-2.27l241-150c9.45-5.88 9.39-19.62 0-25.46z" fill="#ff637b" data-original="#FF637B"/><path d="m504.93 359.73-241 150c-2.43 1.52-5.18 2.27-7.93 2.27v-330c2.75 0 5.5.76 7.93 2.27l241 150c9.39 5.84 9.45 19.58 0 25.46z" fill="#e63950" data-original="#E63950" class=""/><path d="m504.93 244.27-241-150c-2.43-1.51-5.18-2.27-7.93-2.27s-5.5.76-7.93 2.27l-241 150c-9.45 5.88-9.39 19.62 0 25.46l241 150c2.43 1.51 5.17 2.27 7.93 2.27 2.75 0 5.5-.75 7.93-2.27l241-150c9.45-5.88 9.39-19.62 0-25.46z" fill="#ffda2d" data-original="#FFDA2D"/><path d="m504.93 269.73-241 150c-2.43 1.52-5.18 2.27-7.93 2.27v-330c2.75 0 5.5.76 7.93 2.27l241 150c9.39 5.84 9.45 19.58 0 25.46z" fill="#fdbf00" data-original="#FDBF00" class=""/><path d="m505 154.31-241-152c-2.44-1.54-5.22-2.31-8-2.31s-5.56.77-8 2.31l-241 152c-9.37 5.91-9.3 19.59.07 25.42l241 150c2.43 1.51 5.17 2.27 7.93 2.27 2.75 0 5.5-.75 7.93-2.27l241-150c9.37-5.83 9.44-19.51.07-25.42z" fill="#b9b6ec" data-original="#B9B6EC"/><path d="m504.93 179.73-241 150c-2.43 1.52-5.18 2.27-7.93 2.27v-332c2.78 0 5.56.77 8 2.31l241 152c9.37 5.91 9.3 19.59-.07 25.42z" fill="#979fef" data-original="#979FEF" class="active-path"/></g> </svg>
