<?xml version="1.0"?>
<svg xmlns="http://www.w3.org/2000/svg" height="512px" viewBox="-85 0 512 512.0004" width="512px"><g transform="matrix(0.913517 0 0 0.913517 14.7885 22.1396)"><path d="m334.785156 393.523438c-1.6875 0-3.390625-.542969-4.824218-1.660157-.667969-.519531-16.511719-13.011719-27.335938-35.089843-10.070312-20.535157-17.582031-53.484376 3.816406-93.851563 18.710938-35.289063 18.929688-58.621094 15.824219-71.976563-3-12.894531-9.546875-18.738281-9.613281-18.792968-.203125-.167969-.402344-.347656-.589844-.535156l-42.898438-43.207032c-3.058593-3.078125-3.042968-8.054687.039063-11.113281s8.058594-3.042969 11.117187.039063l42.699219 43.003906c4.242188 3.777344 36.515625 35.992187-2.6875 109.945312-14.6875 27.707032-15.894531 54.476563-3.59375 79.566406 9.25 18.859376 22.746094 29.503907 22.882813 29.609376 3.425781 2.667968 4.039062 7.605468 1.371094 11.03125-1.550782 1.992187-3.867188 3.03125-6.207032 3.03125zm0 0" fill="#696e73" data-original="#696E73"/><path d="m212.886719 164.585938-75.527344-15.722657c-11.808594-2.457031-19.386719-14.019531-16.929687-25.824219 2.460937-11.808593 14.023437-19.386718 25.828124-16.929687l61.714844 12.847656 35.253906-48.5c7.09375-9.753906 20.746094-11.910156 30.5-4.820312 9.753907 7.089843 11.914063 20.746093 4.824219 30.5l-43.554687 59.910156c-4.996094 6.871094-13.613282 10.308594-22.109375 8.539063zm0 0" fill="#80391b" data-original="#80391B"/><path d="m191.457031 115.519531-45.199219-9.410156c-11.804687-2.457031-23.367187 5.121094-25.828124 16.929687-2.457032 11.804688 5.121093 23.367188 16.929687 25.824219 8.15625 1.699219 40.902344 8.515625 46.296875 9.636719zm0 0" fill="#e83e29" data-original="#E83E29"/><path d="m16.226562 510.015625c-13.378906-5.511719-19.757812-20.828125-14.242187-34.207031l43.65625-105.960938 3.300781-78.863281c.605469-14.460937 12.8125-25.679687 27.273438-25.085937 14.457031.605468 25.6875 12.816406 25.082031 27.277343l-3.492187 83.480469c-.128907 3.050781-.789063 6.058594-1.953126 8.882812l-45.417968 110.230469c-5.484375 13.316407-20.765625 19.785157-34.207032 14.246094zm0 0" fill="#748488" data-original="#748488"/><path d="m131.964844 511.382812c-14.15625-3-23.203125-16.90625-20.203125-31.0625l24.164062-114.105468-32.429687-88.414063c-4.980469-13.585937 1.992187-28.640625 15.578125-33.621093 13.585937-4.984376 28.636719 1.988281 33.621093 15.574218l35.023438 95.492188c1.695312 4.625 2.054688 9.632812 1.035156 14.449218l-25.726562 121.480469c-3 14.15625-16.90625 23.203125-31.0625 20.207031zm0 0" fill="#55696e" data-original="#55696E"/><path d="m164.5625 292.078125h-115.65625v-156.84375c0-16.882813 13.6875-30.570313 30.570312-30.570313h54.515626c16.882812 0 30.570312 13.6875 30.570312 30.570313zm0 0" fill="#fa503c" data-original="#FA503C"/><path d="m152.222656 45.253906c0 24.992188-20.257812 45.253906-45.253906 45.253906-24.992188 0-45.25-20.261718-45.25-45.253906 0-24.992187 20.257812-45.253906 45.25-45.253906 24.996094 0 45.253906 20.261719 45.253906 45.253906zm0 0" fill="#80391b" data-original="#80391B"/><path d="m233.917969 232.292969-86.9375 7.183593c-7.289063.601563-14.390625-2.484374-18.929688-8.21875l-65.945312-83.417968c-7.480469-9.460938-5.871094-23.191406 3.585937-30.671875 9.457032-7.484375 23.191406-5.871094 30.671875 3.589843l58.6875 74.234376 75.269531-6.222657c12.019532-.992187 22.566407 7.945313 23.558594 19.964844.992188 12.003906-7.933594 22.566406-19.960937 23.558594zm0 0" fill="#80391b" data-original="#80391B"/><path d="m131.347656 165.003906-34.984375-44.25c-7.480469-9.457031-21.214843-11.070312-30.671875-3.585937-9.457031 7.480469-11.066406 21.210937-3.585937 30.671875l34.746093 43.949218zm0 0" fill="#e83e29" data-original="#E83E29"/><path d="m283.71875 146.6875c-3.796875 0-7.59375-1.445312-10.492188-4.339844l-63.847656-63.777344c-5.800781-5.796874-5.804687-15.195312-.011718-20.996093 5.796874-5.804688 15.195312-5.808594 20.996093-.015625l63.847657 63.777344c5.800781 5.796874 5.804687 15.195312.011718 21-2.898437 2.902343-6.703125 4.351562-10.503906 4.351562zm0 0" fill="#50555a" data-original="#50555A"/><path d="m235.089844 54.136719c0 16.105469-13.054688 29.160156-29.160156 29.160156-16.105469 0-29.160157-13.054687-29.160157-29.160156s13.054688-29.160157 29.160157-29.160157c16.105468 0 29.160156 13.054688 29.160156 29.160157zm0 0" fill="#373c41" data-original="#373C41" class="active-path" style="fill:#373C41" data-old_color="#373c41"/></g> </svg>
